<svg xmlns="http://www.w3.org/2000/svg" xmlns:xlink="http://www.w3.org/1999/xlink" width="240" zoomAndPan="magnify" viewBox="0 0 180 74.999997" height="100" preserveAspectRatio="xMidYMid meet" version="1.0"><defs><g/><clipPath id="753e563bd8"><rect x="0" width="63" y="0" height="75"/></clipPath><clipPath id="89589ce83e"><rect x="0" width="55" y="0" height="69"/></clipPath><clipPath id="ba60297d8b"><rect x="0" width="37" y="0" height="75"/></clipPath><clipPath id="4b5e283295"><rect x="0" width="49" y="0" height="75"/></clipPath><clipPath id="574c2e4dd5"><rect x="0" width="48" y="0" height="32"/></clipPath><clipPath id="505a7127df"><rect x="0" width="180" y="0" height="75"/></clipPath></defs><g transform="matrix(1, 0, 0, 1, 0, -0.000000000000001893)"><g clip-path="url(#505a7127df)"><g transform="matrix(1, 0, 0, 1, 0, -0.000000000000001893)"><g clip-path="url(#753e563bd8)"><g fill="#fff9f9" fill-opacity="1"><g transform="translate(-0.67228, 68.651548)"><g><path d="M 34.734375 -26.78125 C 36.285156 -27.632812 37.203125 -28.816406 37.484375 -30.328125 C 37.765625 -31.847656 37.425781 -33.222656 36.46875 -34.453125 C 35.519531 -35.691406 33.953125 -36.3125 31.765625 -36.3125 C 29.929688 -36.382812 28.535156 -35.875 27.578125 -34.78125 C 26.628906 -33.6875 26.132812 -32.414062 26.09375 -30.96875 C 26.0625 -29.519531 26.484375 -28.226562 27.359375 -27.09375 C 28.242188 -25.96875 29.640625 -25.40625 31.546875 -25.40625 L 61.515625 -25.40625 L 61.515625 0 L 31.546875 0 C 27.316406 0 23.363281 -0.789062 19.6875 -2.375 C 16.019531 -3.96875 12.773438 -6.175781 9.953125 -9 C 7.128906 -11.820312 4.921875 -15.066406 3.328125 -18.734375 C 1.742188 -22.410156 0.953125 -26.363281 0.953125 -30.59375 C 0.953125 -36.175781 2.203125 -41.257812 4.703125 -45.84375 C 7.210938 -50.425781 10.78125 -54.113281 15.40625 -56.90625 C 20.03125 -59.695312 25.519531 -61.128906 31.875 -61.203125 C 35.1875 -61.203125 38.519531 -60.882812 41.875 -60.25 C 45.226562 -59.613281 48.382812 -58.410156 51.34375 -56.640625 C 54.3125 -54.878906 56.785156 -52.269531 58.765625 -48.8125 C 59.609375 -47.320312 60.222656 -45.550781 60.609375 -43.5 C 61.003906 -41.457031 61.144531 -39.359375 61.03125 -37.203125 C 60.925781 -35.054688 60.484375 -33.046875 59.703125 -31.171875 C 58.929688 -29.304688 57.734375 -27.84375 56.109375 -26.78125 Z M 34.734375 -26.78125 "/></g></g></g></g></g><g transform="matrix(1, 0, 0, 1, 51, -0.000000000000001893)"><g clip-path="url(#89589ce83e)"><g fill="#171616" fill-opacity="1"><g transform="translate(4.419621, 48.230553)"><g><path d="M 23.144531 -47.644531 C 26.640625 -47.644531 29.917969 -46.984375 32.96875 -45.664062 C 35.984375 -44.359375 38.652344 -42.5625 40.976562 -40.265625 C 43.3125 -37.960938 45.132812 -35.28125 46.441406 -32.222656 C 47.761719 -29.148438 48.417969 -25.863281 48.417969 -22.371094 L 48.417969 2.902344 L 24.035156 2.902344 L 24.035156 -22.371094 C 24.035156 -22.621094 23.933594 -22.851562 23.730469 -23.0625 C 23.550781 -23.246094 23.355469 -23.339844 23.144531 -23.339844 C 22.882812 -23.339844 22.664062 -23.246094 22.484375 -23.0625 C 22.28125 -22.851562 22.179688 -22.621094 22.179688 -22.371094 C 22.179688 -22.121094 22.28125 -21.890625 22.484375 -21.679688 C 22.664062 -21.496094 22.882812 -21.402344 23.144531 -21.402344 L 28.757812 -21.402344 L 28.757812 2.902344 L 23.144531 2.902344 C 19.652344 2.902344 16.367188 2.246094 13.292969 0.925781 C 10.234375 -0.382812 7.554688 -2.207031 5.25 -4.539062 C 2.957031 -6.863281 1.15625 -9.53125 -0.148438 -12.546875 C -1.46875 -15.601562 -2.128906 -18.875 -2.128906 -22.371094 C -2.128906 -25.863281 -1.46875 -29.148438 -0.152344 -32.222656 C 1.15625 -35.273438 2.960938 -37.953125 5.261719 -40.253906 C 7.5625 -42.554688 10.242188 -44.359375 13.292969 -45.667969 C 16.367188 -46.988281 19.652344 -47.644531 23.144531 -47.644531 Z M 23.144531 -41.839844 C 20.445312 -41.839844 17.925781 -41.335938 15.582031 -40.332031 C 13.214844 -39.316406 11.144531 -37.921875 9.367188 -36.148438 C 7.59375 -34.375 6.199219 -32.304688 5.183594 -29.9375 C 4.179688 -27.59375 3.675781 -25.070312 3.675781 -22.371094 C 3.675781 -19.675781 4.179688 -17.171875 5.179688 -14.855469 C 6.195312 -12.503906 7.597656 -10.425781 9.378906 -8.621094 C 11.152344 -6.824219 13.21875 -5.421875 15.582031 -4.410156 C 17.925781 -3.40625 20.445312 -2.902344 23.144531 -2.902344 L 25.855469 -2.902344 L 25.855469 0 L 22.953125 0 L 22.953125 -18.5 L 25.855469 -18.5 L 25.855469 -15.597656 L 23.144531 -15.597656 C 21.242188 -15.597656 19.628906 -16.28125 18.308594 -17.644531 C 17.019531 -18.980469 16.371094 -20.558594 16.371094 -22.371094 C 16.371094 -24.1875 17.019531 -25.761719 18.308594 -27.097656 C 19.628906 -28.460938 21.242188 -29.144531 23.144531 -29.144531 C 25 -29.144531 26.585938 -28.460938 27.902344 -27.097656 C 29.195312 -25.761719 29.839844 -24.1875 29.839844 -22.371094 L 29.839844 0 L 26.9375 0 L 26.9375 -2.902344 L 45.515625 -2.902344 L 45.515625 0 L 42.613281 0 L 42.613281 -22.371094 C 42.613281 -25.070312 42.113281 -27.59375 41.105469 -29.9375 C 40.09375 -32.296875 38.691406 -34.363281 36.898438 -36.136719 C 35.089844 -37.917969 33.011719 -39.320312 30.664062 -40.335938 C 28.347656 -41.339844 25.839844 -41.839844 23.144531 -41.839844 Z M 23.144531 -41.839844 "/></g></g></g><g fill="#fff9f9" fill-opacity="1"><g transform="translate(4.419621, 48.230553)"><g><path d="M 23.140625 -44.734375 C 26.234375 -44.734375 29.125 -44.148438 31.8125 -42.984375 C 34.5 -41.828125 36.875 -40.226562 38.9375 -38.1875 C 41 -36.15625 42.609375 -33.785156 43.765625 -31.078125 C 44.929688 -28.367188 45.515625 -25.46875 45.515625 -22.375 L 45.515625 0 L 26.9375 0 L 26.9375 -22.375 C 26.9375 -23.40625 26.5625 -24.304688 25.8125 -25.078125 C 25.0625 -25.847656 24.171875 -26.234375 23.140625 -26.234375 C 22.054688 -26.234375 21.140625 -25.847656 20.390625 -25.078125 C 19.648438 -24.304688 19.28125 -23.40625 19.28125 -22.375 C 19.28125 -21.34375 19.648438 -20.4375 20.390625 -19.65625 C 21.140625 -18.882812 22.054688 -18.5 23.140625 -18.5 L 25.859375 -18.5 L 25.859375 0 L 23.140625 0 C 20.046875 0 17.144531 -0.578125 14.4375 -1.734375 C 11.726562 -2.898438 9.351562 -4.515625 7.3125 -6.578125 C 5.269531 -8.640625 3.671875 -11.007812 2.515625 -13.6875 C 1.359375 -16.375 0.78125 -19.269531 0.78125 -22.375 C 0.78125 -25.46875 1.359375 -28.367188 2.515625 -31.078125 C 3.671875 -33.785156 5.269531 -36.15625 7.3125 -38.1875 C 9.351562 -40.226562 11.726562 -41.828125 14.4375 -42.984375 C 17.144531 -44.148438 20.046875 -44.734375 23.140625 -44.734375 Z M 23.140625 -44.734375 "/></g></g></g></g></g><g transform="matrix(1, 0, 0, 1, 91, -0.000000000000001893)"><g clip-path="url(#ba60297d8b)"><g fill="#171616" fill-opacity="1"><g transform="translate(4.679707, 69.863167)"><g><path d="M 31.234375 -43.425781 L 31.234375 -22.332031 L 20.976562 -22.332031 C 21.390625 -22.332031 21.785156 -22.519531 22.160156 -22.890625 C 22.53125 -23.265625 22.71875 -23.660156 22.71875 -24.074219 L 22.71875 2.902344 L -2.128906 2.902344 L -2.128906 -23.300781 C -2.128906 -27.902344 -1.117188 -31.925781 0.902344 -35.375 C 2.929688 -38.835938 5.746094 -41.535156 9.347656 -43.46875 C 12.898438 -45.375 16.929688 -46.328125 21.441406 -46.328125 L 31.234375 -46.328125 Z M 25.429688 -43.425781 L 28.332031 -43.425781 L 28.332031 -40.523438 L 21.441406 -40.523438 C 17.902344 -40.523438 14.789062 -39.800781 12.09375 -38.351562 C 9.453125 -36.933594 7.390625 -34.960938 5.910156 -32.4375 C 4.421875 -29.898438 3.675781 -26.851562 3.675781 -23.300781 L 3.675781 0 L 0.773438 0 L 0.773438 -2.902344 L 19.816406 -2.902344 L 19.816406 0 L 16.914062 0 L 16.914062 -24.074219 C 16.914062 -25.261719 17.292969 -26.238281 18.054688 -26.996094 C 18.816406 -27.757812 19.789062 -28.136719 20.976562 -28.136719 L 28.332031 -28.136719 L 28.332031 -25.234375 L 25.429688 -25.234375 Z M 25.429688 -43.425781 "/></g></g></g><g fill="#fff9f9" fill-opacity="1"><g transform="translate(4.679707, 69.863167)"><g><path d="M 28.328125 -43.421875 L 28.328125 -25.234375 L 20.984375 -25.234375 C 20.203125 -25.234375 19.8125 -24.847656 19.8125 -24.078125 L 19.8125 0 L 0.78125 0 L 0.78125 -23.296875 C 0.78125 -27.378906 1.65625 -30.914062 3.40625 -33.90625 C 5.15625 -36.894531 7.59375 -39.226562 10.71875 -40.90625 C 13.84375 -42.582031 17.414062 -43.421875 21.4375 -43.421875 Z M 28.328125 -43.421875 "/></g></g></g></g></g><g transform="matrix(1, 0, 0, 1, 128, -0.000000000000001893)"><g clip-path="url(#4b5e283295)"><g fill="#fff9f9" fill-opacity="1"><g transform="translate(0.590292, 69.863167)"><g><path d="M 19.734375 0 L 0.703125 0 L 0.703125 -22.296875 C 0.703125 -26.109375 1.332031 -29.429688 2.59375 -32.265625 C 3.851562 -35.109375 5.554688 -37.472656 7.703125 -39.359375 C 9.847656 -41.242188 12.25 -42.648438 14.90625 -43.578125 C 17.5625 -44.503906 20.28125 -44.96875 23.0625 -44.96875 C 25.851562 -44.96875 28.585938 -44.503906 31.265625 -43.578125 C 33.953125 -42.648438 36.351562 -41.242188 38.46875 -39.359375 C 40.582031 -37.472656 42.269531 -35.109375 43.53125 -32.265625 C 44.800781 -29.429688 45.4375 -26.109375 45.4375 -22.296875 L 45.4375 0 L 26.390625 0 L 26.390625 -22.296875 C 26.390625 -23.429688 26.054688 -24.320312 25.390625 -24.96875 C 24.722656 -25.613281 23.945312 -25.9375 23.0625 -25.9375 C 22.238281 -25.9375 21.476562 -25.613281 20.78125 -24.96875 C 20.082031 -24.320312 19.734375 -23.429688 19.734375 -22.296875 Z M 19.734375 0 "/></g></g></g></g></g><g transform="matrix(1, 0, 0, 1, 132, -0.000000000000001893)"><g clip-path="url(#574c2e4dd5)"><g fill="#fff9f9" fill-opacity="1"><g transform="translate(7.404328, 16.304003)"><g><path d="M 5.171875 -0.5625 C 4.671875 -0.488281 4.144531 -0.476562 3.59375 -0.53125 C 3.050781 -0.582031 2.535156 -0.710938 2.046875 -0.921875 C 1.566406 -1.128906 1.144531 -1.441406 0.78125 -1.859375 C 0.414062 -2.285156 0.144531 -2.84375 -0.03125 -3.53125 L 2.03125 -3.828125 C 2.238281 -3.335938 2.5 -2.96875 2.8125 -2.71875 C 3.125 -2.476562 3.460938 -2.332031 3.828125 -2.28125 C 4.203125 -2.226562 4.570312 -2.226562 4.9375 -2.28125 C 5.488281 -2.363281 5.929688 -2.546875 6.265625 -2.828125 C 6.597656 -3.109375 6.726562 -3.503906 6.65625 -4.015625 C 6.601562 -4.390625 6.441406 -4.660156 6.171875 -4.828125 C 5.898438 -4.992188 5.5625 -5.101562 5.15625 -5.15625 C 4.757812 -5.21875 4.328125 -5.265625 3.859375 -5.296875 C 3.398438 -5.335938 2.941406 -5.378906 2.484375 -5.421875 C 2.035156 -5.472656 1.613281 -5.582031 1.21875 -5.75 C 0.820312 -5.914062 0.488281 -6.160156 0.21875 -6.484375 C -0.0507812 -6.804688 -0.226562 -7.25 -0.3125 -7.8125 C -0.40625 -8.488281 -0.316406 -9.078125 -0.046875 -9.578125 C 0.210938 -10.085938 0.601562 -10.5 1.125 -10.8125 C 1.65625 -11.132812 2.273438 -11.347656 2.984375 -11.453125 C 3.671875 -11.554688 4.332031 -11.53125 4.96875 -11.375 C 5.613281 -11.226562 6.175781 -10.941406 6.65625 -10.515625 C 7.144531 -10.085938 7.503906 -9.492188 7.734375 -8.734375 L 5.6875 -8.4375 C 5.476562 -8.976562 5.144531 -9.351562 4.6875 -9.5625 C 4.238281 -9.769531 3.742188 -9.832031 3.203125 -9.75 C 2.691406 -9.675781 2.289062 -9.507812 2 -9.25 C 1.707031 -9 1.59375 -8.671875 1.65625 -8.265625 C 1.695312 -7.941406 1.847656 -7.703125 2.109375 -7.546875 C 2.367188 -7.390625 2.691406 -7.285156 3.078125 -7.234375 C 3.460938 -7.179688 3.867188 -7.140625 4.296875 -7.109375 C 4.765625 -7.085938 5.234375 -7.039062 5.703125 -6.96875 C 6.171875 -6.894531 6.613281 -6.769531 7.03125 -6.59375 C 7.445312 -6.425781 7.796875 -6.171875 8.078125 -5.828125 C 8.367188 -5.484375 8.5625 -5.007812 8.65625 -4.40625 C 8.800781 -3.40625 8.566406 -2.554688 7.953125 -1.859375 C 7.347656 -1.171875 6.421875 -0.738281 5.171875 -0.5625 Z M 5.171875 -0.5625 "/></g></g></g><g fill="#fff9f9" fill-opacity="1"><g transform="translate(19.045873, 15.283839)"><g><path d="M 2.9375 0.40625 L 0.9375 0.125 L 2.421875 -10.46875 L 4.421875 -10.1875 Z M 2.9375 0.40625 "/></g></g></g><g fill="#fff9f9" fill-opacity="1"><g transform="translate(24.987854, 16.059831)"><g><path d="M 4.984375 2.171875 L 3.125 1.359375 L 6.671875 -6.796875 L 3.671875 -8.09375 L 4.40625 -9.75 L 12.25 -6.34375 L 11.515625 -4.6875 L 8.53125 -5.984375 Z M 4.984375 2.171875 "/></g></g></g><g fill="#fff9f9" fill-opacity="1"><g transform="translate(34.558672, 20.571088)"><g><path d="M 5.921875 5.53125 L 0.703125 0.65625 L 8 -7.171875 L 13.21875 -2.296875 L 11.984375 -0.96875 L 8.234375 -4.46875 L 6.453125 -2.546875 L 9.8125 0.578125 L 8.578125 1.890625 L 5.21875 -1.234375 L 3.40625 0.703125 L 7.15625 4.203125 Z M 5.921875 5.53125 "/></g></g></g></g></g></g></g></svg>