<svg xmlns="http://www.w3.org/2000/svg" xmlns:xlink="http://www.w3.org/1999/xlink" width="250" zoomAndPan="magnify" viewBox="0 0 187.5 74.999997" height="100" preserveAspectRatio="xMidYMid meet" version="1.0"><defs><g/><clipPath id="0f54a8901e"><path d="M 1 0.101562 L 187 0.101562 L 187 74.898438 L 1 74.898438 Z M 1 0.101562 " clip-rule="nonzero"/></clipPath><clipPath id="c24556632c"><path d="M 0.195312 0.101562 L 65 0.101562 L 65 74.898438 L 0.195312 74.898438 Z M 0.195312 0.101562 " clip-rule="nonzero"/></clipPath><clipPath id="db1885694e"><rect x="0" width="65" y="0" height="75"/></clipPath><clipPath id="2540945a60"><path d="M 53 0.101562 L 109 0.101562 L 109 70 L 53 70 Z M 53 0.101562 " clip-rule="nonzero"/></clipPath><clipPath id="92d9545a5b"><path d="M 2 0.101562 L 54 0.101562 L 54 52 L 2 52 Z M 2 0.101562 " clip-rule="nonzero"/></clipPath><clipPath id="2f8d5fa038"><rect x="0" width="56" y="0" height="70"/></clipPath><clipPath id="06eed668f9"><path d="M 94 0.101562 L 132 0.101562 L 132 74.898438 L 94 74.898438 Z M 94 0.101562 " clip-rule="nonzero"/></clipPath><clipPath id="d53f468d0c"><rect x="0" width="38" y="0" height="75"/></clipPath><clipPath id="571f64e3d0"><path d="M 131 0.101562 L 181 0.101562 L 181 74.898438 L 131 74.898438 Z M 131 0.101562 " clip-rule="nonzero"/></clipPath><clipPath id="8b442da32f"><rect x="0" width="50" y="0" height="75"/></clipPath><clipPath id="a3f88f8e9a"><path d="M 136 0.101562 L 186 0.101562 L 186 32 L 136 32 Z M 136 0.101562 " clip-rule="nonzero"/></clipPath><clipPath id="9244297b8d"><rect x="0" width="50" y="0" height="32"/></clipPath><clipPath id="734a061ed3"><rect x="0" width="186" y="0" height="75"/></clipPath></defs><g clip-path="url(#0f54a8901e)"><g transform="matrix(1, 0, 0, 1, 1, -0.000000000000008674)"><g clip-path="url(#734a061ed3)"><g clip-path="url(#c24556632c)"><g transform="matrix(1, 0, 0, 1, 0, -0.000000000000008674)"><g clip-path="url(#db1885694e)"><g fill="#fff9f9" fill-opacity="1"><g transform="translate(0.778549, 69.231576)"><g><path d="M 35.25 -27.1875 C 36.832031 -28.050781 37.765625 -29.253906 38.046875 -30.796875 C 38.335938 -32.335938 38 -33.734375 37.03125 -34.984375 C 36.0625 -36.234375 34.46875 -36.859375 32.25 -36.859375 C 30.382812 -36.929688 28.96875 -36.410156 28 -35.296875 C 27.03125 -34.191406 26.523438 -32.90625 26.484375 -31.4375 C 26.453125 -29.96875 26.882812 -28.660156 27.78125 -27.515625 C 28.675781 -26.367188 30.09375 -25.796875 32.03125 -25.796875 L 62.453125 -25.796875 L 62.453125 0 L 32.03125 0 C 27.726562 0 23.710938 -0.804688 19.984375 -2.421875 C 16.265625 -4.035156 12.96875 -6.273438 10.09375 -9.140625 C 7.226562 -12.003906 4.988281 -15.296875 3.375 -19.015625 C 1.769531 -22.742188 0.96875 -26.757812 0.96875 -31.0625 C 0.96875 -36.71875 2.238281 -41.875 4.78125 -46.53125 C 7.320312 -51.195312 10.9375 -54.941406 15.625 -57.765625 C 20.320312 -60.597656 25.898438 -62.050781 32.359375 -62.125 C 35.722656 -62.125 39.101562 -61.800781 42.5 -61.15625 C 45.90625 -60.507812 49.113281 -59.289062 52.125 -57.5 C 55.132812 -55.707031 57.644531 -53.054688 59.65625 -49.546875 C 60.507812 -48.046875 61.132812 -46.253906 61.53125 -44.171875 C 61.925781 -42.097656 62.066406 -39.96875 61.953125 -37.78125 C 61.847656 -35.59375 61.398438 -33.550781 60.609375 -31.65625 C 59.828125 -29.757812 58.613281 -28.269531 56.96875 -27.1875 Z M 35.25 -27.1875 "/></g></g></g></g></g></g><g clip-path="url(#2540945a60)"><g transform="matrix(1, 0, 0, 1, 53, -0.000000000000008674)"><g clip-path="url(#2f8d5fa038)"><g clip-path="url(#92d9545a5b)"><g fill="#171616" fill-opacity="1"><g transform="translate(4.729663, 48.497774)"><g><path d="M 23.5 -48.375 C 27.050781 -48.375 30.375 -47.707031 33.472656 -46.363281 C 36.535156 -45.039062 39.246094 -43.210938 41.605469 -40.882812 C 43.972656 -38.542969 45.824219 -35.820312 47.15625 -32.71875 C 48.492188 -29.59375 49.160156 -26.261719 49.160156 -22.714844 L 49.160156 2.949219 L 24.402344 2.949219 L 24.402344 -22.714844 C 24.402344 -22.96875 24.300781 -23.203125 24.09375 -23.417969 C 23.910156 -23.601562 23.714844 -23.695312 23.5 -23.695312 C 23.234375 -23.695312 23.007812 -23.601562 22.828125 -23.417969 C 22.621094 -23.203125 22.519531 -22.96875 22.519531 -22.714844 C 22.519531 -22.460938 22.621094 -22.226562 22.828125 -22.011719 C 23.007812 -21.824219 23.234375 -21.730469 23.5 -21.730469 L 29.199219 -21.730469 L 29.199219 2.949219 L 23.5 2.949219 C 19.953125 2.949219 16.617188 2.277344 13.496094 0.941406 C 10.390625 -0.390625 7.671875 -2.238281 5.328125 -4.609375 C 3 -6.96875 1.175781 -9.679688 -0.152344 -12.742188 C -1.492188 -15.839844 -2.160156 -19.164062 -2.160156 -22.714844 C -2.160156 -26.261719 -1.492188 -29.59375 -0.15625 -32.71875 C 1.171875 -35.816406 3.003906 -38.535156 5.34375 -40.871094 C 7.679688 -43.207031 10.398438 -45.039062 13.496094 -46.367188 C 16.617188 -47.707031 19.953125 -48.375 23.5 -48.375 Z M 23.5 -42.480469 C 20.757812 -42.480469 18.199219 -41.96875 15.820312 -40.949219 C 13.417969 -39.921875 11.3125 -38.503906 9.511719 -36.703125 C 7.710938 -34.902344 6.292969 -32.796875 5.261719 -30.394531 C 4.242188 -28.015625 3.734375 -25.453125 3.734375 -22.714844 C 3.734375 -19.976562 4.242188 -17.433594 5.257812 -15.082031 C 6.292969 -12.695312 7.714844 -10.585938 9.523438 -8.75 C 11.324219 -6.929688 13.421875 -5.503906 15.820312 -4.476562 C 18.199219 -3.457031 20.757812 -2.949219 23.5 -2.949219 L 26.25 -2.949219 L 26.25 0 L 23.304688 0 L 23.304688 -18.785156 L 26.25 -18.785156 L 26.25 -15.835938 L 23.5 -15.835938 C 21.566406 -15.835938 19.929688 -16.53125 18.589844 -17.914062 C 17.277344 -19.273438 16.621094 -20.871094 16.621094 -22.714844 C 16.621094 -24.554688 17.277344 -26.15625 18.589844 -27.511719 C 19.929688 -28.898438 21.566406 -29.589844 23.5 -29.589844 C 25.382812 -29.589844 26.992188 -28.898438 28.332031 -27.511719 C 29.644531 -26.15625 30.296875 -24.554688 30.296875 -22.714844 L 30.296875 0 L 27.351562 0 L 27.351562 -2.949219 L 46.214844 -2.949219 L 46.214844 0 L 43.265625 0 L 43.265625 -22.714844 C 43.265625 -25.453125 42.757812 -28.015625 41.738281 -30.394531 C 40.710938 -32.792969 39.285156 -34.890625 37.460938 -36.6875 C 35.628906 -38.5 33.519531 -39.921875 31.132812 -40.953125 C 28.78125 -41.972656 26.238281 -42.480469 23.5 -42.480469 Z M 23.5 -42.480469 "/></g></g></g></g><g fill="#fff9f9" fill-opacity="1"><g transform="translate(4.729663, 48.497774)"><g><path d="M 23.5 -45.421875 C 26.644531 -45.421875 29.578125 -44.832031 32.296875 -43.65625 C 35.023438 -42.476562 37.4375 -40.851562 39.53125 -38.78125 C 41.625 -36.71875 43.257812 -34.304688 44.4375 -31.546875 C 45.625 -28.796875 46.21875 -25.851562 46.21875 -22.71875 L 46.21875 0 L 27.34375 0 L 27.34375 -22.71875 C 27.34375 -23.757812 26.960938 -24.671875 26.203125 -25.453125 C 25.453125 -26.242188 24.550781 -26.640625 23.5 -26.640625 C 22.394531 -26.640625 21.460938 -26.242188 20.703125 -25.453125 C 19.941406 -24.671875 19.5625 -23.757812 19.5625 -22.71875 C 19.5625 -21.664062 19.941406 -20.742188 20.703125 -19.953125 C 21.460938 -19.171875 22.394531 -18.78125 23.5 -18.78125 L 26.25 -18.78125 L 26.25 0 L 23.5 0 C 20.351562 0 17.40625 -0.585938 14.65625 -1.765625 C 11.90625 -2.941406 9.492188 -4.578125 7.421875 -6.671875 C 5.359375 -8.773438 3.734375 -11.1875 2.546875 -13.90625 C 1.367188 -16.632812 0.78125 -19.570312 0.78125 -22.71875 C 0.78125 -25.851562 1.367188 -28.796875 2.546875 -31.546875 C 3.734375 -34.304688 5.359375 -36.71875 7.421875 -38.78125 C 9.492188 -40.851562 11.90625 -42.476562 14.65625 -43.65625 C 17.40625 -44.832031 20.351562 -45.421875 23.5 -45.421875 Z M 23.5 -45.421875 "/></g></g></g></g></g></g><g clip-path="url(#06eed668f9)"><g transform="matrix(1, 0, 0, 1, 94, -0.000000000000008674)"><g clip-path="url(#d53f468d0c)"><g fill="#171616" fill-opacity="1"><g transform="translate(4.606437, 70.461747)"><g><path d="M 31.714844 -44.09375 L 31.714844 -22.675781 L 21.300781 -22.675781 C 21.71875 -22.675781 22.121094 -22.863281 22.5 -23.242188 C 22.878906 -23.621094 23.066406 -24.023438 23.066406 -24.441406 L 23.066406 2.949219 L -2.160156 2.949219 L -2.160156 -23.65625 C -2.160156 -28.328125 -1.136719 -32.414062 0.914062 -35.914062 C 2.976562 -39.429688 5.835938 -42.171875 9.492188 -44.132812 C 13.097656 -46.070312 17.191406 -47.039062 21.769531 -47.039062 L 31.714844 -47.039062 Z M 25.816406 -44.09375 L 28.765625 -44.09375 L 28.765625 -41.144531 L 21.769531 -41.144531 C 18.179688 -41.144531 15.015625 -40.410156 12.28125 -38.941406 C 9.597656 -37.5 7.503906 -35.496094 6 -32.933594 C 4.488281 -30.355469 3.734375 -27.261719 3.734375 -23.65625 L 3.734375 0 L 0.785156 0 L 0.785156 -2.949219 L 20.121094 -2.949219 L 20.121094 0 L 17.171875 0 L 17.171875 -24.441406 C 17.171875 -25.648438 17.558594 -26.640625 18.332031 -27.410156 C 19.101562 -28.183594 20.09375 -28.570312 21.300781 -28.570312 L 28.765625 -28.570312 L 28.765625 -25.621094 L 25.816406 -25.621094 Z M 25.816406 -44.09375 "/></g></g></g><g fill="#fff9f9" fill-opacity="1"><g transform="translate(4.606437, 70.461747)"><g><path d="M 28.765625 -44.09375 L 28.765625 -25.625 L 21.296875 -25.625 C 20.515625 -25.625 20.125 -25.226562 20.125 -24.4375 L 20.125 0 L 0.78125 0 L 0.78125 -23.65625 C 0.78125 -27.789062 1.671875 -31.378906 3.453125 -34.421875 C 5.234375 -37.460938 7.707031 -39.832031 10.875 -41.53125 C 14.050781 -43.238281 17.679688 -44.09375 21.765625 -44.09375 Z M 28.765625 -44.09375 "/></g></g></g></g></g></g><g clip-path="url(#571f64e3d0)"><g transform="matrix(1, 0, 0, 1, 131, -0.000000000000008674)"><g clip-path="url(#8b442da32f)"><g fill="#fff9f9" fill-opacity="1"><g transform="translate(1.021136, 70.461747)"><g><path d="M 20.046875 0 L 0.703125 0 L 0.703125 -22.640625 C 0.703125 -26.515625 1.34375 -29.890625 2.625 -32.765625 C 3.914062 -35.648438 5.644531 -38.046875 7.8125 -39.953125 C 9.988281 -41.867188 12.425781 -43.296875 15.125 -44.234375 C 17.820312 -45.179688 20.585938 -45.65625 23.421875 -45.65625 C 26.253906 -45.65625 29.03125 -45.179688 31.75 -44.234375 C 34.476562 -43.296875 36.914062 -41.867188 39.0625 -39.953125 C 41.207031 -38.046875 42.921875 -35.648438 44.203125 -32.765625 C 45.492188 -29.890625 46.140625 -26.515625 46.140625 -22.640625 L 46.140625 0 L 26.796875 0 L 26.796875 -22.640625 C 26.796875 -23.785156 26.453125 -24.6875 25.765625 -25.34375 C 25.085938 -26 24.304688 -26.328125 23.421875 -26.328125 C 22.578125 -26.328125 21.800781 -26 21.09375 -25.34375 C 20.394531 -24.6875 20.046875 -23.785156 20.046875 -22.640625 Z M 20.046875 0 "/></g></g></g></g></g></g><g clip-path="url(#a3f88f8e9a)"><g transform="matrix(1, 0, 0, 1, 136, -0.000000000000008674)"><g clip-path="url(#9244297b8d)"><g fill="#fff9f9" fill-opacity="1"><g transform="translate(7.000841, 16.082178)"><g><path d="M 5.25 -0.5625 C 4.738281 -0.488281 4.207031 -0.476562 3.65625 -0.53125 C 3.101562 -0.582031 2.578125 -0.710938 2.078125 -0.921875 C 1.585938 -1.140625 1.15625 -1.460938 0.78125 -1.890625 C 0.414062 -2.328125 0.148438 -2.890625 -0.015625 -3.578125 L 2.078125 -3.890625 C 2.265625 -3.390625 2.515625 -3.015625 2.828125 -2.765625 C 3.148438 -2.523438 3.5 -2.375 3.875 -2.3125 C 4.257812 -2.25 4.640625 -2.25 5.015625 -2.3125 C 5.578125 -2.382812 6.023438 -2.566406 6.359375 -2.859375 C 6.703125 -3.148438 6.832031 -3.554688 6.75 -4.078125 C 6.695312 -4.453125 6.53125 -4.722656 6.25 -4.890625 C 5.976562 -5.054688 5.640625 -5.171875 5.234375 -5.234375 C 4.828125 -5.296875 4.390625 -5.34375 3.921875 -5.375 C 3.453125 -5.40625 2.988281 -5.445312 2.53125 -5.5 C 2.070312 -5.5625 1.640625 -5.671875 1.234375 -5.828125 C 0.835938 -5.992188 0.5 -6.238281 0.21875 -6.5625 C -0.0507812 -6.894531 -0.226562 -7.347656 -0.3125 -7.921875 C -0.40625 -8.609375 -0.320312 -9.207031 -0.0625 -9.71875 C 0.195312 -10.226562 0.597656 -10.644531 1.140625 -10.96875 C 1.679688 -11.300781 2.316406 -11.519531 3.046875 -11.625 C 3.734375 -11.726562 4.398438 -11.703125 5.046875 -11.546875 C 5.691406 -11.390625 6.257812 -11.09375 6.75 -10.65625 C 7.25 -10.226562 7.613281 -9.632812 7.84375 -8.875 L 5.765625 -8.5625 C 5.546875 -9.113281 5.207031 -9.492188 4.75 -9.703125 C 4.300781 -9.910156 3.800781 -9.976562 3.25 -9.90625 C 2.738281 -9.820312 2.332031 -9.648438 2.03125 -9.390625 C 1.738281 -9.128906 1.625 -8.789062 1.6875 -8.375 C 1.726562 -8.050781 1.878906 -7.8125 2.140625 -7.65625 C 2.410156 -7.5 2.738281 -7.390625 3.125 -7.328125 C 3.507812 -7.273438 3.921875 -7.234375 4.359375 -7.203125 C 4.835938 -7.179688 5.3125 -7.132812 5.78125 -7.0625 C 6.25 -7 6.695312 -6.878906 7.125 -6.703125 C 7.550781 -6.523438 7.910156 -6.257812 8.203125 -5.90625 C 8.503906 -5.5625 8.703125 -5.082031 8.796875 -4.46875 C 8.941406 -3.457031 8.703125 -2.597656 8.078125 -1.890625 C 7.460938 -1.191406 6.519531 -0.75 5.25 -0.5625 Z M 5.25 -0.5625 "/></g></g></g><g fill="#fff9f9" fill-opacity="1"><g transform="translate(18.820719, 15.046386)"><g><path d="M 2.984375 0.421875 L 0.953125 0.140625 L 2.453125 -10.609375 L 4.484375 -10.328125 Z M 2.984375 0.421875 "/></g></g></g><g fill="#fff9f9" fill-opacity="1"><g transform="translate(24.853698, 15.834266)"><g><path d="M 5.0625 2.203125 L 3.171875 1.375 L 6.78125 -6.90625 L 3.734375 -8.21875 L 4.46875 -9.890625 L 12.421875 -6.4375 L 11.6875 -4.765625 L 8.671875 -6.078125 Z M 5.0625 2.203125 "/></g></g></g><g fill="#fff9f9" fill-opacity="1"><g transform="translate(34.571138, 20.414625)"><g><path d="M 6 5.609375 L 0.703125 0.65625 L 8.109375 -7.28125 L 13.40625 -2.328125 L 12.15625 -0.984375 L 8.359375 -4.53125 L 6.53125 -2.578125 L 9.9375 0.59375 L 8.703125 1.921875 L 5.296875 -1.25 L 3.46875 0.71875 L 7.265625 4.265625 Z M 6 5.609375 "/></g></g></g></g></g></g></g></g></g></svg>